<svg width="24" height="24" viewBox="0 0 24 24" fill="none" xmlns="http://www.w3.org/2000/svg">
<path d="M6 8.25C6.414 8.25 6.75 7.91475 6.75 7.5V6.75C6.75 6.33525 6.414 6 6 6C5.586 6 5.25 6.33525 5.25 6.75V7.5C5.25 7.91475 5.586 8.25 6 8.25Z" fill="#4B5563"/>
<path d="M8.18581 16.5H6.75031V9.75C6.75031 9.33525 6.41431 9 6.00031 9C5.58631 9 5.25031 9.33525 5.25031 9.75V16.5H3.81481C3.51406 16.5 3.36331 16.8637 3.57631 17.076L5.76181 19.2615C5.89381 19.3935 6.10756 19.3935 6.23881 19.2615L8.42431 17.076C8.63656 16.8637 8.48656 16.5 8.18581 16.5Z" fill="#4B5563"/>
<path d="M10.5 7.5H15C15.4148 7.5 15.75 7.16475 15.75 6.75C15.75 6.33525 15.4148 6 15 6H10.5C10.086 6 9.75 6.33525 9.75 6.75C9.75 7.16475 10.086 7.5 10.5 7.5Z" fill="#4B5563"/>
<path d="M10.5 11.25H16.5C16.9148 11.25 17.25 10.9147 17.25 10.5C17.25 10.0853 16.9148 9.75 16.5 9.75H10.5C10.086 9.75 9.75 10.0853 9.75 10.5C9.75 10.9147 10.086 11.25 10.5 11.25Z" fill="#4B5563"/>
<path d="M10.5 15H18C18.4148 15 18.75 14.6647 18.75 14.25C18.75 13.8353 18.4148 13.5 18 13.5H10.5C10.086 13.5 9.75 13.8353 9.75 14.25C9.75 14.6647 10.086 15 10.5 15Z" fill="#4B5563"/>
<path d="M19.5 17.25H10.5C10.086 17.25 9.75 17.5853 9.75 18C9.75 18.4147 10.086 18.75 10.5 18.75H19.5C19.9148 18.75 20.25 18.4147 20.25 18C20.25 17.5853 19.9148 17.25 19.5 17.25Z" fill="#4B5563"/>
</svg>
